<?xml version="1.0" encoding="UTF-8"?>
<svg xmlns="http://www.w3.org/2000/svg" xmlns:xlink="http://www.w3.org/1999/xlink" width="150px" height="150px" viewBox="0 0 150 150" version="1.1">
<g id="surface1">
<path style=" stroke:none;fill-rule:nonzero;fill:rgb(7.058824%,7.058824%,6.27451%);fill-opacity:1;" d="M 86.25 85.714844 C 77.738281 118.570312 36.945312 129.410156 12.835938 105.640625 C -4.328125 88.550781 -4.308594 60.421875 13.046875 43.476562 C 18.523438 38.132812 25.40625 34.234375 32.808594 32.417969 C 20.921875 35.730469 10.671875 44.296875 5.332031 55.382812 C -5.492188 77.785156 4.632812 104.507812 27.617188 114.152344 C 51.710938 124.128906 79.164062 110.722656 86.25 85.71875 Z M 86.25 85.714844 "/>
<path style=" stroke:none;fill-rule:nonzero;fill:rgb(7.058824%,7.058824%,6.27451%);fill-opacity:1;" d="M 32.832031 32.472656 C 11.816406 39.558594 0.109375 62.347656 6.414062 83.507812 C 12.519531 104.601562 34.4375 117.574219 55.921875 112.726562 C 69.8125 109.78125 81.6875 99.128906 86.191406 85.699219 C 82.539062 99.269531 70.011719 110.480469 56.113281 113.578125 C 34.25 118.796875 11.484375 105.375 5.441406 83.789062 C -0.984375 62.53125 11.46875 38.460938 32.832031 32.472656 Z M 32.832031 32.472656 "/>
<path style=" stroke:none;fill-rule:nonzero;fill:rgb(7.058824%,7.058824%,6.27451%);fill-opacity:1;" d="M 32.855469 32.519531 C 2.242188 45.535156 0.203125 86.921875 28.179688 104.089844 C 48.957031 116.804688 76.785156 108.335938 86.144531 85.675781 C 86.144531 85.675781 86.355469 85.757812 86.355469 85.757812 C 83.976562 91.972656 79.898438 97.519531 74.75 101.773438 C 66.386719 108.757812 55.03125 111.972656 44.21875 110.605469 C 27.558594 108.65625 13.550781 96.601562 9.078125 80.5 C 8.996094 80.136719 8.695312 79.035156 8.609375 78.671875 C 8.515625 78.238281 8.320312 77.261719 8.226562 76.828125 C 8.019531 75.621094 7.839844 74.320312 7.71875 73.097656 C 6.75 62.691406 9.976562 51.910156 16.714844 43.894531 C 20.980469 38.761719 26.542969 34.691406 32.769531 32.320312 L 32.855469 32.527344 Z M 32.855469 32.519531 "/>
<path style=" stroke:none;fill-rule:nonzero;fill:rgb(7.058824%,7.058824%,6.27451%);fill-opacity:1;" d="M 32.878906 32.554688 C 9.1875 44.523438 5.285156 76.289062 23.863281 94.640625 C 36.8125 107.914062 59.0625 110.40625 74.195312 99.378906 C 79.203125 95.871094 83.359375 91.132812 86.109375 85.648438 L 86.386719 85.785156 C 83.703125 91.355469 79.578125 96.226562 74.550781 99.875 C 56.015625 113.417969 29.289062 107.296875 17.410156 87.996094 C 12.472656 80.070312 10.351562 70.425781 11.6875 61.179688 C 13.347656 48.847656 21.472656 37.625 32.738281 32.28125 C 32.738281 32.28125 32.875 32.554688 32.875 32.554688 Z M 32.878906 32.554688 "/>
<path style=" stroke:none;fill-rule:nonzero;fill:rgb(7.058824%,7.058824%,6.27451%);fill-opacity:1;" d="M 32.910156 32.578125 C 15.101562 43.65625 10.703125 67.351562 21.949219 84.691406 C 32.902344 101.898438 56.4375 108.183594 74.074219 97.410156 C 78.914062 94.480469 83.09375 90.433594 86.09375 85.621094 L 86.410156 85.816406 C 81.953125 93.167969 74.78125 98.871094 66.585938 101.5625 C 46.59375 108.175781 24.550781 97.050781 17.429688 77.410156 C 14.4375 69.316406 14.195312 60.230469 16.925781 52.03125 C 19.625 43.855469 25.34375 36.707031 32.714844 32.257812 C 32.714844 32.257812 32.910156 32.574219 32.910156 32.574219 Z M 32.910156 32.578125 "/>
<path style=" stroke:none;fill-rule:nonzero;fill:rgb(7.058824%,7.058824%,6.27451%);fill-opacity:1;" d="M 32.9375 32.582031 C 27.519531 36.808594 23.5 42.6875 21.214844 49.125 C 21.042969 49.671875 20.5625 51.351562 20.386719 51.9375 C 20.25 52.667969 19.921875 54.105469 19.792969 54.804688 C 19.695312 55.761719 19.527344 56.765625 19.433594 57.714844 C 19.433594 57.714844 19.347656 59.664062 19.347656 59.664062 C 19.316406 60.210938 19.304688 61.054688 19.34375 61.617188 C 19.367188 62.265625 19.378906 62.917969 19.414062 63.566406 C 19.414062 63.566406 19.632812 65.503906 19.632812 65.503906 C 19.722656 66.59375 20.101562 68.261719 20.300781 69.351562 C 20.46875 70.011719 20.910156 71.550781 21.074219 72.179688 C 25.550781 86.109375 37.589844 96.488281 52.097656 98.746094 C 52.816406 98.855469 54.292969 98.980469 55.015625 99.078125 C 55.964844 99.132812 56.996094 99.136719 57.949219 99.179688 C 58.703125 99.167969 60.140625 99.078125 60.886719 99.054688 C 61.835938 98.957031 62.851562 98.800781 63.804688 98.695312 C 64.558594 98.5625 65.9375 98.246094 66.679688 98.105469 C 67.210938 97.9375 68.964844 97.441406 69.496094 97.277344 C 69.496094 97.277344 70.410156 96.921875 70.410156 96.921875 C 76.523438 94.652344 82.046875 90.710938 86.085938 85.585938 C 86.085938 85.585938 86.414062 85.839844 86.414062 85.839844 C 82.375 91.0625 76.8125 95.15625 70.617188 97.472656 C 70.617188 97.472656 69.6875 97.835938 69.6875 97.835938 C 69.128906 98.011719 67.417969 98.5 66.824219 98.6875 C 65.667969 98.925781 64.070312 99.308594 62.914062 99.429688 C 62.253906 99.511719 61.597656 99.601562 60.9375 99.675781 C 60.9375 99.675781 58.949219 99.773438 58.949219 99.773438 C 58.394531 99.808594 57.53125 99.820312 56.957031 99.785156 C 55.824219 99.785156 54.132812 99.65625 52.988281 99.507812 C 52.429688 99.496094 51.578125 99.304688 51.019531 99.210938 C 36.667969 96.757812 24.773438 86.203125 20.421875 72.378906 C 20.234375 71.738281 19.828125 70.15625 19.644531 69.5 C 19.542969 68.902344 19.1875 67.164062 19.089844 66.574219 C 18.980469 65.84375 18.859375 64.347656 18.761719 63.613281 C 18.707031 62.648438 18.707031 61.605469 18.667969 60.632812 C 18.679688 59.878906 18.777344 58.410156 18.804688 57.660156 C 18.90625 56.695312 19.070312 55.664062 19.179688 54.703125 C 19.320312 53.941406 19.648438 52.539062 19.796875 51.785156 C 19.96875 51.25 20.480469 49.472656 20.652344 48.933594 C 20.898438 48.257812 21.488281 46.828125 21.746094 46.15625 C 21.746094 46.15625 22.628906 44.375 22.628906 44.375 C 25.027344 39.660156 28.492188 35.480469 32.679688 32.25 L 32.933594 32.578125 Z M 32.9375 32.582031 "/>
<path style=" stroke:none;fill-rule:nonzero;fill:rgb(7.058824%,7.058824%,6.27451%);fill-opacity:1;" d="M 32.96875 32.574219 C 23.464844 42.378906 20.402344 56.398438 24.691406 69.300781 C 30.867188 88.195312 51.238281 99.742188 70.597656 94.417969 C 76.382812 92.804688 81.789062 89.742188 86.101562 85.558594 C 86.101562 85.558594 86.410156 85.871094 86.410156 85.871094 C 82.074219 90.132812 76.613281 93.308594 70.746094 94.949219 C 51.066406 100.402344 30.332031 88.75 24.109375 69.484375 C 23.632812 68.085938 23.25 66.503906 22.933594 65.070312 C 22.78125 64.40625 22.625 63.039062 22.496094 62.363281 C 22.289062 60.613281 22.195312 58.664062 22.207031 56.894531 C 22.253906 55.117188 22.453125 53.199219 22.730469 51.4375 C 22.882812 50.558594 23.125 49.632812 23.296875 48.753906 C 23.476562 48.039062 23.882812 46.824219 24.074219 46.125 C 25.890625 40.964844 28.785156 36.148438 32.65625 32.257812 C 32.65625 32.257812 32.96875 32.5625 32.96875 32.5625 Z M 32.96875 32.574219 "/>
<path style=" stroke:none;fill-rule:nonzero;fill:rgb(7.058824%,7.058824%,6.27451%);fill-opacity:1;" d="M 32.992188 32.542969 C 25.015625 43.785156 23.933594 57.910156 29.808594 70.320312 C 37.4375 86.199219 55.179688 95.375 72.546875 91.582031 C 77.398438 90.441406 82.066406 88.433594 86.121094 85.53125 C 86.121094 85.53125 86.378906 85.890625 86.378906 85.890625 C 82.277344 88.832031 77.558594 90.882812 72.652344 92.046875 C 59.816406 94.890625 46.328125 90.699219 37.046875 81.484375 C 29.667969 74.089844 25.421875 63.914062 25.570312 53.46875 C 25.570312 52.785156 25.671875 51.621094 25.695312 50.953125 C 25.765625 50.136719 25.902344 49.269531 25.988281 48.453125 C 26.097656 47.761719 26.34375 46.648438 26.460938 45.976562 C 26.460938 45.976562 26.890625 44.351562 26.890625 44.351562 C 28.070312 40.03125 30.023438 35.929688 32.632812 32.285156 C 32.632812 32.285156 32.992188 32.539062 32.992188 32.539062 Z M 32.992188 32.542969 "/>
<path style=" stroke:none;fill-rule:nonzero;fill:rgb(7.058824%,7.058824%,6.27451%);fill-opacity:1;" d="M 33.003906 32.507812 C 27.949219 43.074219 27.789062 55.148438 32.605469 65.824219 C 39.613281 81.28125 55.949219 90.96875 72.9375 89.230469 C 77.507812 88.738281 82.011719 87.503906 86.15625 85.523438 C 86.15625 85.523438 86.34375 85.910156 86.34375 85.910156 C 82.15625 87.914062 77.601562 89.171875 72.984375 89.671875 C 56.664062 91.371094 40.746094 82.574219 33.199219 68.101562 C 32.988281 67.648438 32.378906 66.46875 32.183594 66.019531 C 31.96875 65.53125 31.5 64.371094 31.289062 63.878906 C 31.148438 63.445312 30.660156 62.121094 30.519531 61.691406 C 30.355469 61.171875 30.035156 59.984375 29.878906 59.460938 C 29.703125 58.636719 29.351562 57.269531 29.242188 56.433594 C 29.242188 56.433594 28.992188 54.90625 28.992188 54.90625 C 28.914062 54.058594 28.722656 52.679688 28.710938 51.828125 C 28.320312 45.144531 29.734375 38.371094 32.625 32.328125 C 32.625 32.328125 33.011719 32.511719 33.011719 32.511719 Z M 33.003906 32.507812 "/>
<path style="fill:none;stroke-width:1;stroke-linecap:butt;stroke-linejoin:miter;stroke:rgb(7.058824%,7.058824%,6.27451%);stroke-opacity:1;stroke-miterlimit:10;" d="M 83.025427 82.238338 C 73.189696 119.068244 82.718987 159.991464 111.613298 188.892435 C 140.50761 217.793406 181.442041 227.31804 218.264248 217.476249 " transform="matrix(0.395163,0,0,0.394126,0,0.00569903)"/>
<path style=" stroke:none;fill-rule:nonzero;fill:rgb(7.058824%,7.058824%,6.27451%);fill-opacity:1;" d="M 63.976562 86.027344 C 31.035156 77.539062 20.167969 36.851562 44 12.808594 C 61.136719 -4.308594 89.339844 -4.289062 106.328125 13.019531 C 111.683594 18.480469 115.59375 25.34375 117.414062 32.730469 C 114.09375 20.871094 105.503906 10.652344 94.390625 5.324219 C 71.925781 -5.472656 45.136719 4.625 35.464844 27.550781 C 25.464844 51.582031 38.902344 78.960938 63.972656 86.027344 Z M 63.976562 86.027344 "/>
<path style=" stroke:none;fill-rule:nonzero;fill:rgb(7.058824%,7.058824%,6.27451%);fill-opacity:1;" d="M 117.355469 32.75 C 110.253906 11.789062 87.40625 0.117188 66.191406 6.402344 C 45.039062 12.492188 32.035156 34.355469 36.894531 55.78125 C 39.847656 69.636719 50.53125 81.480469 63.992188 85.972656 C 50.386719 82.328125 39.148438 69.832031 36.042969 55.972656 C 30.8125 34.164062 44.265625 11.460938 65.910156 5.433594 C 87.21875 -0.980469 111.355469 11.441406 117.355469 32.746094 Z M 117.355469 32.75 "/>
<path style=" stroke:none;fill-rule:nonzero;fill:rgb(7.058824%,7.058824%,6.27451%);fill-opacity:1;" d="M 117.3125 32.773438 C 104.261719 2.242188 62.769531 0.210938 45.554688 28.109375 C 32.804688 48.832031 41.296875 76.589844 64.015625 85.925781 C 64.015625 85.925781 63.933594 86.132812 63.933594 86.132812 C 57.707031 83.761719 52.140625 79.695312 47.878906 74.558594 C 40.875 66.21875 37.652344 54.890625 39.023438 44.109375 C 40.976562 27.492188 53.0625 13.519531 69.207031 9.058594 C 69.574219 8.980469 70.675781 8.675781 71.039062 8.59375 C 71.472656 8.5 72.453125 8.304688 72.886719 8.210938 C 74.097656 8.003906 75.402344 7.824219 76.628906 7.703125 C 87.0625 6.738281 97.871094 9.957031 105.90625 16.675781 C 111.058594 20.929688 115.132812 26.480469 117.511719 32.691406 C 117.511719 32.691406 117.304688 32.773438 117.304688 32.773438 Z M 117.3125 32.773438 "/>
<path style=" stroke:none;fill-rule:nonzero;fill:rgb(7.058824%,7.058824%,6.27451%);fill-opacity:1;" d="M 117.277344 32.796875 C 105.28125 9.167969 73.429688 5.273438 55.03125 23.808594 C 41.722656 36.722656 39.222656 58.910156 50.277344 74.007812 C 53.792969 79 58.546875 83.148438 64.042969 85.890625 L 63.910156 86.164062 C 58.320312 83.488281 53.4375 79.375 49.78125 74.363281 C 36.199219 55.875 42.335938 29.21875 61.691406 17.371094 C 69.640625 12.445312 79.308594 10.332031 88.578125 11.664062 C 100.945312 13.320312 112.195312 21.421875 117.554688 32.660156 C 117.554688 32.660156 117.277344 32.792969 117.277344 32.792969 Z M 117.277344 32.796875 "/>
<path style=" stroke:none;fill-rule:nonzero;fill:rgb(7.058824%,7.058824%,6.27451%);fill-opacity:1;" d="M 117.257812 32.828125 C 106.148438 15.070312 82.390625 10.683594 65.003906 21.894531 C 47.75 32.820312 41.449219 56.292969 52.253906 73.882812 C 55.1875 78.710938 59.246094 82.882812 64.070312 85.875 C 64.070312 85.875 63.878906 86.1875 63.878906 86.1875 C 56.503906 81.742188 50.785156 74.589844 48.085938 66.414062 C 41.457031 46.476562 52.613281 24.492188 72.304688 17.390625 C 80.417969 14.40625 89.527344 14.164062 97.75 16.886719 C 105.945312 19.578125 113.117188 25.28125 117.578125 32.636719 C 117.578125 32.636719 117.261719 32.828125 117.261719 32.828125 Z M 117.257812 32.828125 "/>
<path style=" stroke:none;fill-rule:nonzero;fill:rgb(7.058824%,7.058824%,6.27451%);fill-opacity:1;" d="M 117.253906 32.855469 C 113.011719 27.453125 107.121094 23.445312 100.664062 21.167969 C 100.113281 20.992188 98.429688 20.515625 97.847656 20.339844 C 97.113281 20.199219 95.667969 19.875 94.96875 19.746094 C 94.007812 19.648438 93.003906 19.484375 92.054688 19.390625 C 92.054688 19.390625 90.097656 19.300781 90.097656 19.300781 C 89.546875 19.269531 88.703125 19.257812 88.140625 19.296875 C 87.488281 19.320312 86.835938 19.332031 86.183594 19.367188 C 86.183594 19.367188 84.242188 19.585938 84.242188 19.585938 C 83.148438 19.675781 81.480469 20.054688 80.382812 20.253906 C 79.722656 20.421875 78.179688 20.863281 77.550781 21.023438 C 63.582031 25.488281 53.175781 37.496094 50.914062 51.96875 C 50.800781 52.683594 50.679688 54.15625 50.582031 54.875 C 50.527344 55.820312 50.523438 56.851562 50.476562 57.804688 C 50.488281 58.554688 50.582031 59.988281 50.605469 60.734375 C 50.699219 61.679688 50.859375 62.691406 50.964844 63.640625 C 51.097656 64.394531 51.414062 65.769531 51.558594 66.511719 C 51.722656 67.039062 52.222656 68.789062 52.386719 69.320312 C 52.386719 69.320312 52.742188 70.230469 52.742188 70.230469 C 55.019531 76.328125 58.96875 81.839844 64.105469 85.867188 C 64.105469 85.867188 63.855469 86.191406 63.855469 86.191406 C 58.617188 82.164062 54.511719 76.617188 52.1875 70.4375 C 52.1875 70.4375 51.824219 69.511719 51.824219 69.511719 C 51.648438 68.953125 51.15625 67.246094 50.972656 66.65625 C 50.730469 65.5 50.347656 63.910156 50.230469 62.753906 C 50.144531 62.097656 50.054688 61.441406 49.980469 60.785156 L 49.882812 58.800781 C 49.847656 58.246094 49.835938 57.386719 49.871094 56.816406 C 49.871094 55.683594 50 53.996094 50.148438 52.855469 C 50.160156 52.296875 50.351562 51.445312 50.445312 50.890625 C 52.90625 36.578125 63.488281 24.714844 77.347656 20.375 C 77.992188 20.1875 79.578125 19.78125 80.234375 19.597656 C 80.835938 19.5 82.578125 19.144531 83.171875 19.046875 C 83.902344 18.9375 85.402344 18.816406 86.136719 18.71875 C 87.105469 18.664062 88.152344 18.664062 89.125 18.625 C 89.882812 18.636719 91.355469 18.734375 92.109375 18.761719 C 93.074219 18.859375 94.109375 19.027344 95.074219 19.136719 C 95.835938 19.273438 97.242188 19.601562 97.996094 19.75 C 98.535156 19.921875 100.316406 20.433594 100.859375 20.601562 C 101.535156 20.851562 102.96875 21.4375 103.640625 21.695312 C 103.640625 21.695312 105.425781 22.574219 105.425781 22.574219 C 110.15625 24.964844 114.34375 28.421875 117.585938 32.601562 L 117.257812 32.851562 Z M 117.253906 32.855469 "/>
<path style=" stroke:none;fill-rule:nonzero;fill:rgb(7.058824%,7.058824%,6.27451%);fill-opacity:1;" d="M 117.261719 32.886719 C 107.429688 23.410156 93.375 20.355469 80.433594 24.628906 C 61.492188 30.789062 49.914062 51.109375 55.25 70.417969 C 56.867188 76.1875 59.941406 81.582031 64.136719 85.882812 C 64.136719 85.882812 63.824219 86.1875 63.824219 86.1875 C 59.546875 81.867188 56.367188 76.417969 54.71875 70.566406 C 49.253906 50.9375 60.933594 30.257812 80.25 24.050781 C 81.652344 23.578125 83.242188 23.195312 84.675781 22.878906 C 85.34375 22.726562 86.714844 22.570312 87.390625 22.441406 C 89.144531 22.234375 91.101562 22.144531 92.875 22.15625 C 94.65625 22.203125 96.578125 22.398438 98.34375 22.675781 C 99.226562 22.828125 100.152344 23.070312 101.035156 23.242188 C 101.753906 23.421875 102.972656 23.828125 103.671875 24.015625 C 108.847656 25.828125 113.675781 28.714844 117.578125 32.578125 C 117.578125 32.578125 117.269531 32.886719 117.269531 32.886719 Z M 117.261719 32.886719 "/>
<path style=" stroke:none;fill-rule:nonzero;fill:rgb(7.058824%,7.058824%,6.27451%);fill-opacity:1;" d="M 117.285156 32.910156 C 106.015625 24.953125 91.851562 23.878906 79.40625 29.734375 C 63.488281 37.34375 54.289062 55.042969 58.09375 72.363281 C 59.234375 77.199219 61.25 81.859375 64.160156 85.902344 C 64.160156 85.902344 63.800781 86.15625 63.800781 86.15625 C 60.847656 82.066406 58.792969 77.359375 57.625 72.464844 C 54.773438 59.664062 58.976562 46.214844 68.21875 36.953125 C 75.628906 29.597656 85.832031 25.359375 96.304688 25.507812 C 96.988281 25.507812 98.160156 25.613281 98.828125 25.632812 C 99.644531 25.703125 100.515625 25.839844 101.335938 25.925781 C 102.027344 26.035156 103.144531 26.28125 103.816406 26.394531 C 103.816406 26.394531 105.445312 26.824219 105.445312 26.824219 C 109.777344 28 113.890625 29.953125 117.546875 32.550781 L 117.289062 32.910156 Z M 117.285156 32.910156 "/>
<path style=" stroke:none;fill-rule:nonzero;fill:rgb(7.058824%,7.058824%,6.27451%);fill-opacity:1;" d="M 117.324219 32.921875 C 106.730469 27.882812 94.625 27.71875 83.921875 32.523438 C 68.421875 39.515625 58.710938 55.808594 60.453125 72.753906 C 60.945312 77.308594 62.183594 81.800781 64.171875 85.9375 C 64.171875 85.9375 63.785156 86.121094 63.785156 86.121094 C 61.773438 81.945312 60.511719 77.402344 60.007812 72.796875 C 58.304688 56.519531 67.125 40.644531 81.636719 33.117188 C 82.089844 32.90625 83.277344 32.300781 83.726562 32.101562 C 84.214844 31.890625 85.378906 31.421875 85.871094 31.210938 C 86.308594 31.070312 87.636719 30.585938 88.066406 30.445312 C 88.585938 30.28125 89.777344 29.964844 90.300781 29.804688 C 91.128906 29.632812 92.5 29.28125 93.335938 29.171875 C 93.335938 29.171875 94.867188 28.921875 94.867188 28.921875 C 95.714844 28.84375 97.097656 28.65625 97.953125 28.644531 C 104.65625 28.253906 111.449219 29.664062 117.503906 32.542969 C 117.503906 32.542969 117.320312 32.929688 117.320312 32.929688 Z M 117.324219 32.921875 "/>
<path style="fill:none;stroke-width:1;stroke-linecap:butt;stroke-linejoin:miter;stroke:rgb(7.058824%,7.058824%,6.27451%);stroke-opacity:1;stroke-miterlimit:10;" d="M 297.128024 83.031231 C 260.295932 73.18944 219.381271 82.723985 190.477074 111.605134 C 161.582763 140.496193 152.053472 181.439235 161.889202 218.259231 " transform="matrix(0.395163,0,0,0.394126,0,0.00569903)"/>
<path style=" stroke:none;fill-rule:nonzero;fill:rgb(7.058824%,7.058824%,6.27451%);fill-opacity:1;" d="M 63.746094 64.285156 C 72.257812 31.429688 113.050781 20.589844 137.160156 44.359375 C 154.324219 61.449219 154.304688 89.578125 136.949219 106.523438 C 131.472656 111.867188 124.589844 115.765625 117.1875 117.582031 C 129.074219 114.269531 139.324219 105.703125 144.664062 94.617188 C 155.488281 72.214844 145.363281 45.492188 122.378906 35.847656 C 98.285156 25.871094 70.832031 39.277344 63.746094 64.28125 Z M 63.746094 64.285156 "/>
<path style=" stroke:none;fill-rule:nonzero;fill:rgb(7.058824%,7.058824%,6.27451%);fill-opacity:1;" d="M 117.167969 117.523438 C 138.183594 110.441406 149.886719 87.648438 143.585938 66.492188 C 137.480469 45.398438 115.5625 32.425781 94.078125 37.273438 C 80.1875 40.21875 68.3125 50.871094 63.808594 64.300781 C 67.460938 50.730469 79.988281 39.519531 93.886719 36.421875 C 115.75 31.203125 138.515625 44.625 144.558594 66.210938 C 150.988281 87.464844 138.53125 111.539062 117.171875 117.523438 Z M 117.167969 117.523438 "/>
<path style=" stroke:none;fill-rule:nonzero;fill:rgb(7.058824%,7.058824%,6.27451%);fill-opacity:1;" d="M 117.144531 117.480469 C 147.757812 104.464844 149.792969 63.078125 121.820312 45.914062 C 101.042969 33.199219 73.214844 41.667969 63.855469 64.328125 C 63.855469 64.328125 63.644531 64.246094 63.644531 64.246094 C 66.023438 58.03125 70.101562 52.484375 75.25 48.230469 C 83.613281 41.246094 94.96875 38.03125 105.78125 39.398438 C 122.441406 41.347656 136.449219 53.402344 140.921875 69.507812 C 141.003906 69.867188 141.304688 70.96875 141.390625 71.332031 C 141.484375 71.765625 141.679688 72.742188 141.773438 73.175781 C 141.980469 74.382812 142.160156 75.683594 142.28125 76.90625 C 143.25 87.3125 140.023438 98.09375 133.285156 106.109375 C 129.019531 111.242188 123.457031 115.3125 117.230469 117.683594 C 117.230469 117.683594 117.144531 117.476562 117.144531 117.476562 Z M 117.144531 117.480469 "/>
<path style=" stroke:none;fill-rule:nonzero;fill:rgb(7.058824%,7.058824%,6.27451%);fill-opacity:1;" d="M 117.121094 117.445312 C 140.8125 105.476562 144.714844 73.710938 126.136719 55.359375 C 113.1875 42.085938 90.9375 39.59375 75.804688 50.621094 C 70.796875 54.128906 66.640625 58.867188 63.890625 64.351562 C 63.890625 64.351562 63.613281 64.214844 63.613281 64.214844 C 66.296875 58.644531 70.421875 53.773438 75.449219 50.125 C 93.984375 36.582031 120.710938 42.703125 132.589844 62.003906 C 137.527344 69.929688 139.648438 79.574219 138.3125 88.820312 C 136.652344 101.152344 128.527344 112.375 117.261719 117.71875 C 117.261719 117.71875 117.125 117.445312 117.125 117.445312 Z M 117.121094 117.445312 "/>
<path style=" stroke:none;fill-rule:nonzero;fill:rgb(7.058824%,7.058824%,6.27451%);fill-opacity:1;" d="M 117.089844 117.421875 C 134.898438 106.34375 139.296875 82.648438 128.050781 65.308594 C 117.097656 48.101562 93.5625 41.816406 75.925781 52.589844 C 71.085938 55.519531 66.90625 59.566406 63.90625 64.378906 C 63.90625 64.378906 63.589844 64.183594 63.589844 64.183594 C 68.046875 56.832031 75.21875 51.128906 83.414062 48.4375 C 103.40625 41.824219 125.449219 52.949219 132.570312 72.589844 C 135.5625 80.683594 135.804688 89.769531 133.074219 97.96875 C 130.375 106.144531 124.65625 113.292969 117.285156 117.742188 C 117.285156 117.742188 117.089844 117.425781 117.089844 117.425781 Z M 117.089844 117.421875 "/>
<path style=" stroke:none;fill-rule:nonzero;fill:rgb(7.058824%,7.058824%,6.27451%);fill-opacity:1;" d="M 117.0625 117.417969 C 122.480469 113.191406 126.5 107.3125 128.785156 100.875 C 128.957031 100.328125 129.4375 98.648438 129.613281 98.0625 C 129.75 97.332031 130.078125 95.894531 130.207031 95.195312 C 130.304688 94.238281 130.472656 93.234375 130.566406 92.285156 C 130.566406 92.285156 130.652344 90.335938 130.652344 90.335938 C 130.683594 89.789062 130.695312 88.945312 130.65625 88.382812 C 130.632812 87.734375 130.621094 87.082031 130.585938 86.433594 C 130.585938 86.433594 130.367188 84.496094 130.367188 84.496094 C 130.277344 83.40625 129.898438 81.738281 129.699219 80.648438 C 129.53125 79.988281 129.089844 78.449219 128.925781 77.820312 C 124.449219 63.890625 112.410156 53.511719 97.902344 51.253906 C 97.183594 51.144531 95.707031 51.019531 94.984375 50.921875 C 94.035156 50.867188 93.003906 50.863281 92.050781 50.820312 C 91.296875 50.832031 89.859375 50.921875 89.113281 50.945312 C 88.164062 51.042969 87.148438 51.199219 86.195312 51.304688 C 85.441406 51.4375 84.0625 51.753906 83.320312 51.894531 C 82.789062 52.0625 81.035156 52.558594 80.503906 52.722656 C 80.503906 52.722656 79.589844 53.078125 79.589844 53.078125 C 73.476562 55.347656 67.953125 59.289062 63.914062 64.414062 C 63.914062 64.414062 63.585938 64.160156 63.585938 64.160156 C 67.625 58.9375 73.1875 54.84375 79.382812 52.527344 C 79.382812 52.527344 80.3125 52.164062 80.3125 52.164062 C 80.871094 51.988281 82.582031 51.5 83.175781 51.3125 C 84.332031 51.074219 85.929688 50.691406 87.085938 50.570312 C 87.746094 50.488281 88.402344 50.398438 89.0625 50.324219 L 91.050781 50.226562 C 91.605469 50.191406 92.46875 50.179688 93.042969 50.214844 C 94.175781 50.214844 95.867188 50.34375 97.011719 50.492188 C 97.570312 50.503906 98.421875 50.695312 98.980469 50.789062 C 113.332031 53.242188 125.226562 63.796875 129.578125 77.621094 C 129.765625 78.261719 130.171875 79.84375 130.355469 80.5 C 130.457031 81.097656 130.8125 82.835938 130.910156 83.425781 C 131.019531 84.15625 131.140625 85.652344 131.238281 86.386719 C 131.292969 87.351562 131.292969 88.394531 131.332031 89.367188 C 131.320312 90.121094 131.222656 91.589844 131.195312 92.339844 C 131.09375 93.304688 130.929688 94.335938 130.820312 95.296875 C 130.679688 96.058594 130.351562 97.460938 130.203125 98.214844 C 130.03125 98.75 129.519531 100.527344 129.347656 101.066406 C 129.101562 101.742188 128.511719 103.171875 128.253906 103.84375 C 128.253906 103.84375 127.371094 105.625 127.371094 105.625 C 124.972656 110.339844 121.507812 114.519531 117.320312 117.75 C 117.320312 117.75 117.066406 117.421875 117.066406 117.421875 Z M 117.0625 117.417969 "/>
<path style=" stroke:none;fill-rule:nonzero;fill:rgb(7.058824%,7.058824%,6.27451%);fill-opacity:1;" d="M 117.03125 117.425781 C 126.535156 107.621094 129.597656 93.601562 125.308594 80.699219 C 119.132812 61.804688 98.761719 50.257812 79.402344 55.582031 C 73.617188 57.195312 68.210938 60.257812 63.898438 64.441406 C 63.898438 64.441406 63.589844 64.128906 63.589844 64.128906 C 67.925781 59.867188 73.386719 56.691406 79.253906 55.050781 C 98.933594 49.597656 119.667969 61.25 125.890625 80.515625 C 126.367188 81.914062 126.75 83.496094 127.066406 84.929688 C 127.21875 85.59375 127.375 86.960938 127.503906 87.636719 C 127.710938 89.386719 127.804688 91.335938 127.792969 93.105469 C 127.746094 94.882812 127.546875 96.800781 127.269531 98.5625 C 127.117188 99.441406 126.875 100.367188 126.703125 101.246094 C 126.523438 101.960938 126.117188 103.175781 125.925781 103.875 C 124.109375 109.035156 121.214844 113.851562 117.34375 117.742188 C 117.34375 117.742188 117.03125 117.4375 117.03125 117.4375 Z M 117.03125 117.425781 "/>
<path style=" stroke:none;fill-rule:nonzero;fill:rgb(7.058824%,7.058824%,6.27451%);fill-opacity:1;" d="M 117.007812 117.453125 C 124.984375 106.210938 126.066406 92.085938 120.191406 79.675781 C 112.5625 63.796875 94.820312 54.621094 77.453125 58.414062 C 72.601562 59.554688 67.933594 61.5625 63.878906 64.464844 C 63.878906 64.464844 63.621094 64.105469 63.621094 64.105469 C 67.722656 61.164062 72.441406 59.113281 77.347656 57.949219 C 90.183594 55.105469 103.671875 59.296875 112.953125 68.511719 C 120.332031 75.90625 124.578125 86.082031 124.429688 96.527344 C 124.429688 97.210938 124.328125 98.375 124.304688 99.042969 C 124.234375 99.859375 124.097656 100.722656 124.011719 101.542969 C 123.902344 102.234375 123.65625 103.347656 123.539062 104.019531 C 123.539062 104.019531 123.109375 105.644531 123.109375 105.644531 C 121.929688 109.964844 119.976562 114.066406 117.367188 117.710938 L 117.007812 117.457031 Z M 117.007812 117.453125 "/>
<path style=" stroke:none;fill-rule:nonzero;fill:rgb(7.058824%,7.058824%,6.27451%);fill-opacity:1;" d="M 116.996094 117.492188 C 122.050781 106.925781 122.210938 94.851562 117.394531 84.175781 C 110.386719 68.71875 94.050781 59.03125 77.0625 60.769531 C 72.492188 61.261719 67.988281 62.496094 63.84375 64.476562 C 63.84375 64.476562 63.65625 64.089844 63.65625 64.089844 C 67.84375 62.085938 72.398438 60.828125 77.015625 60.328125 C 93.335938 58.628906 109.253906 67.425781 116.800781 81.898438 C 117.011719 82.351562 117.621094 83.53125 117.816406 83.980469 C 118.03125 84.46875 118.5 85.628906 118.710938 86.121094 C 118.851562 86.554688 119.339844 87.878906 119.480469 88.308594 C 119.644531 88.828125 119.964844 90.015625 120.121094 90.539062 C 120.296875 91.363281 120.648438 92.730469 120.757812 93.566406 C 120.757812 93.566406 121.007812 95.09375 121.007812 95.09375 C 121.085938 95.941406 121.277344 97.320312 121.289062 98.171875 C 121.679688 104.855469 120.265625 111.628906 117.375 117.671875 C 117.375 117.671875 116.988281 117.488281 116.988281 117.488281 Z M 116.996094 117.492188 "/>
<path style="fill:none;stroke-width:1;stroke-linecap:butt;stroke-linejoin:miter;stroke:rgb(7.058824%,7.058824%,6.27451%);stroke-opacity:1;stroke-miterlimit:10;" d="M 296.56457 298.32166 C 306.4003 261.491753 296.87101 220.568533 267.976698 191.667563 C 239.082387 162.766592 198.147955 153.241958 161.325748 163.083749 " transform="matrix(0.395163,0,0,0.394126,0,0.00569903)"/>
<path style=" stroke:none;fill-rule:nonzero;fill:rgb(7.058824%,7.058824%,6.27451%);fill-opacity:1;" d="M 86.023438 63.96875 C 118.964844 72.457031 129.832031 113.144531 106 137.1875 C 88.863281 154.304688 60.660156 154.285156 43.671875 136.976562 C 38.316406 131.515625 34.40625 124.652344 32.585938 117.265625 C 35.90625 129.125 44.496094 139.34375 55.609375 144.671875 C 78.074219 155.46875 104.863281 145.371094 114.535156 122.445312 C 124.535156 98.414062 111.097656 71.035156 86.027344 63.96875 Z M 86.023438 63.96875 "/>
<path style=" stroke:none;fill-rule:nonzero;fill:rgb(7.058824%,7.058824%,6.27451%);fill-opacity:1;" d="M 32.644531 117.25 C 39.746094 138.210938 62.597656 149.878906 83.808594 143.597656 C 104.960938 137.507812 117.964844 115.644531 113.105469 94.21875 C 110.152344 80.363281 99.46875 68.519531 86.007812 64.027344 C 99.613281 67.671875 110.851562 80.167969 113.957031 94.027344 C 119.1875 115.835938 105.734375 138.539062 84.089844 144.566406 C 62.78125 150.980469 38.644531 138.558594 32.644531 117.253906 Z M 32.644531 117.25 "/>
<path style=" stroke:none;fill-rule:nonzero;fill:rgb(7.058824%,7.058824%,6.27451%);fill-opacity:1;" d="M 32.6875 117.226562 C 45.734375 147.757812 87.230469 149.789062 104.441406 121.890625 C 117.191406 101.167969 108.699219 73.410156 85.980469 64.074219 C 85.980469 64.074219 86.0625 63.867188 86.0625 63.867188 C 92.289062 66.238281 97.855469 70.304688 102.117188 75.441406 C 109.121094 83.78125 112.34375 95.109375 110.972656 105.890625 C 109.019531 122.507812 96.933594 136.480469 80.789062 140.941406 C 80.421875 141.019531 79.320312 141.324219 78.957031 141.40625 C 78.523438 141.5 77.542969 141.695312 77.109375 141.789062 C 75.898438 141.996094 74.59375 142.175781 73.367188 142.296875 C 62.933594 143.261719 52.125 140.042969 44.089844 133.324219 C 38.9375 129.070312 34.859375 123.519531 32.480469 117.308594 L 32.691406 117.226562 Z M 32.6875 117.226562 "/>
<path style=" stroke:none;fill-rule:nonzero;fill:rgb(7.058824%,7.058824%,6.27451%);fill-opacity:1;" d="M 32.722656 117.203125 C 44.71875 140.832031 76.570312 144.726562 94.96875 126.191406 C 108.277344 113.277344 110.777344 91.089844 99.722656 75.992188 C 96.207031 71 91.453125 66.851562 85.957031 64.109375 C 85.957031 64.109375 86.089844 63.835938 86.089844 63.835938 C 91.679688 66.511719 96.5625 70.625 100.21875 75.636719 C 113.800781 94.125 107.664062 120.78125 88.308594 132.628906 C 80.359375 137.554688 70.691406 139.667969 61.421875 138.335938 C 49.054688 136.679688 37.804688 128.578125 32.445312 117.339844 C 32.445312 117.339844 32.722656 117.207031 32.722656 117.207031 Z M 32.722656 117.203125 "/>
<path style=" stroke:none;fill-rule:nonzero;fill:rgb(7.058824%,7.058824%,6.27451%);fill-opacity:1;" d="M 32.742188 117.171875 C 43.851562 134.929688 67.609375 139.316406 84.996094 128.105469 C 102.25 117.179688 108.550781 93.707031 97.746094 76.117188 C 94.8125 71.289062 90.753906 67.117188 85.929688 64.125 C 85.929688 64.125 86.121094 63.8125 86.121094 63.8125 C 93.496094 68.257812 99.214844 75.410156 101.914062 83.585938 C 108.542969 103.523438 97.386719 125.507812 77.695312 132.609375 C 69.582031 135.59375 60.472656 135.835938 52.25 133.113281 C 44.054688 130.421875 36.882812 124.71875 32.421875 117.363281 C 32.421875 117.363281 32.738281 117.171875 32.738281 117.171875 Z M 32.742188 117.171875 "/>
<path style=" stroke:none;fill-rule:nonzero;fill:rgb(7.058824%,7.058824%,6.27451%);fill-opacity:1;" d="M 32.746094 117.144531 C 36.988281 122.546875 42.878906 126.554688 49.335938 128.832031 C 49.886719 129.007812 51.570312 129.484375 52.152344 129.660156 C 52.886719 129.800781 54.332031 130.125 55.03125 130.253906 C 55.992188 130.351562 56.996094 130.515625 57.945312 130.609375 C 57.945312 130.609375 59.902344 130.699219 59.902344 130.699219 C 60.453125 130.730469 61.296875 130.742188 61.859375 130.703125 C 62.511719 130.679688 63.164062 130.667969 63.816406 130.632812 L 65.757812 130.414062 C 66.851562 130.324219 68.519531 129.945312 69.617188 129.75 C 70.277344 129.578125 71.820312 129.136719 72.449219 128.976562 C 86.417969 124.511719 96.824219 112.503906 99.085938 98.03125 C 99.199219 97.316406 99.320312 95.84375 99.417969 95.125 C 99.472656 94.179688 99.476562 93.148438 99.523438 92.195312 C 99.511719 91.445312 99.417969 90.011719 99.394531 89.265625 C 99.300781 88.320312 99.140625 87.308594 99.035156 86.359375 C 98.902344 85.605469 98.585938 84.230469 98.441406 83.488281 C 98.277344 82.964844 97.777344 81.210938 97.613281 80.679688 C 97.613281 80.679688 97.257812 79.769531 97.257812 79.769531 C 94.980469 73.671875 91.03125 68.160156 85.894531 64.132812 C 85.894531 64.132812 86.144531 63.808594 86.144531 63.808594 C 91.382812 67.835938 95.488281 73.382812 97.8125 79.5625 C 97.8125 79.5625 98.175781 80.488281 98.175781 80.488281 C 98.351562 81.046875 98.84375 82.753906 99.027344 83.34375 C 99.269531 84.5 99.652344 86.089844 99.769531 87.246094 C 99.855469 87.902344 99.945312 88.558594 100.019531 89.214844 L 100.117188 91.199219 C 100.152344 91.753906 100.164062 92.613281 100.128906 93.183594 C 100.128906 94.316406 100 96.003906 99.851562 97.144531 C 99.839844 97.703125 99.648438 98.554688 99.554688 99.109375 C 97.09375 113.421875 86.511719 125.285156 72.652344 129.625 C 72.007812 129.8125 70.421875 130.21875 69.765625 130.402344 C 69.164062 130.5 67.421875 130.855469 66.828125 130.953125 C 66.097656 131.0625 64.597656 131.183594 63.863281 131.28125 C 62.894531 131.335938 61.847656 131.335938 60.875 131.375 C 60.117188 131.363281 58.644531 131.265625 57.890625 131.238281 C 56.925781 131.140625 55.890625 130.972656 54.925781 130.863281 C 54.164062 130.726562 52.757812 130.398438 52.003906 130.25 C 51.464844 130.078125 49.683594 129.566406 49.140625 129.398438 C 48.464844 129.148438 47.03125 128.5625 46.359375 128.304688 C 46.359375 128.304688 44.574219 127.425781 44.574219 127.425781 C 39.84375 125.035156 35.65625 121.578125 32.414062 117.398438 L 32.742188 117.148438 Z M 32.746094 117.144531 "/>
<path style=" stroke:none;fill-rule:nonzero;fill:rgb(7.058824%,7.058824%,6.27451%);fill-opacity:1;" d="M 32.738281 117.113281 C 42.570312 126.589844 56.625 129.644531 69.566406 125.371094 C 88.507812 119.210938 100.085938 98.890625 94.75 79.582031 C 93.132812 73.8125 90.058594 68.417969 85.863281 64.117188 C 85.863281 64.117188 86.175781 63.8125 86.175781 63.8125 C 90.453125 68.132812 93.632812 73.582031 95.28125 79.433594 C 100.746094 99.0625 89.066406 119.742188 69.75 125.949219 C 68.347656 126.421875 66.757812 126.804688 65.324219 127.121094 C 64.65625 127.273438 63.285156 127.429688 62.609375 127.558594 C 60.855469 127.765625 58.898438 127.855469 57.125 127.84375 C 55.34375 127.796875 53.421875 127.601562 51.65625 127.324219 C 50.773438 127.171875 49.847656 126.929688 48.964844 126.757812 C 48.246094 126.578125 47.027344 126.171875 46.328125 125.984375 C 41.152344 124.171875 36.324219 121.285156 32.421875 117.421875 C 32.421875 117.421875 32.730469 117.113281 32.730469 117.113281 Z M 32.738281 117.113281 "/>
<path style=" stroke:none;fill-rule:nonzero;fill:rgb(7.058824%,7.058824%,6.27451%);fill-opacity:1;" d="M 32.714844 117.089844 C 43.984375 125.046875 58.148438 126.121094 70.59375 120.265625 C 86.511719 112.65625 95.710938 94.957031 91.90625 77.636719 C 90.765625 72.800781 88.75 68.140625 85.839844 64.097656 C 85.839844 64.097656 86.199219 63.84375 86.199219 63.84375 C 89.152344 67.933594 91.207031 72.640625 92.375 77.535156 C 95.226562 90.335938 91.023438 103.785156 81.78125 113.046875 C 74.371094 120.402344 64.167969 124.640625 53.695312 124.492188 C 53.011719 124.492188 51.839844 124.386719 51.171875 124.367188 C 50.355469 124.296875 49.484375 124.160156 48.664062 124.074219 C 47.972656 123.964844 46.855469 123.71875 46.183594 123.605469 C 46.183594 123.605469 44.554688 123.175781 44.554688 123.175781 C 40.222656 122 36.109375 120.046875 32.453125 117.449219 C 32.453125 117.449219 32.710938 117.089844 32.710938 117.089844 Z M 32.714844 117.089844 "/>
<path style=" stroke:none;fill-rule:nonzero;fill:rgb(7.058824%,7.058824%,6.27451%);fill-opacity:1;" d="M 32.675781 117.078125 C 43.269531 122.117188 55.375 122.28125 66.078125 117.476562 C 81.578125 110.484375 91.289062 94.191406 89.546875 77.246094 C 89.054688 72.691406 87.816406 68.199219 85.828125 64.0625 C 85.828125 64.0625 86.214844 63.878906 86.214844 63.878906 C 88.226562 68.054688 89.488281 72.597656 89.992188 77.203125 C 91.695312 93.480469 82.875 109.355469 68.363281 116.882812 C 67.910156 117.09375 66.722656 117.699219 66.273438 117.898438 C 65.785156 118.109375 64.621094 118.578125 64.128906 118.789062 C 63.691406 118.929688 62.363281 119.414062 61.933594 119.554688 C 61.414062 119.71875 60.222656 120.035156 59.699219 120.195312 C 58.871094 120.367188 57.5 120.71875 56.664062 120.828125 C 56.664062 120.828125 55.132812 121.078125 55.132812 121.078125 C 54.285156 121.15625 52.902344 121.34375 52.046875 121.355469 C 45.34375 121.746094 38.550781 120.335938 32.496094 117.457031 C 32.496094 117.457031 32.679688 117.070312 32.679688 117.070312 Z M 32.675781 117.078125 "/>
<path style="fill:none;stroke-width:1;stroke-linecap:butt;stroke-linejoin:miter;stroke:rgb(7.058824%,7.058824%,6.27451%);stroke-opacity:1;stroke-miterlimit:10;" d="M 82.461973 297.528766 C 119.294064 307.370558 160.208726 297.836013 189.112922 268.954864 C 218.007234 240.063804 227.536524 199.120762 217.700794 162.300767 " transform="matrix(0.395163,0,0,0.394126,0,0.00569903)"/>
</g>
</svg>
