<?xml version="1.0" encoding="UTF-8"?>
<svg id="Layer_2" xmlns="http://www.w3.org/2000/svg" viewBox="0 0 379.59 380.56">
  <g id="Layer_1-2" data-name="Layer_1">
    <g>
      <path d="M218.26,217.47c-21.54,83.36-124.77,110.86-185.78,50.55-43.43-43.36-43.38-114.73.54-157.72,13.86-13.56,31.27-23.45,50.01-28.06-30.09,8.4-56.02,30.14-69.54,58.27-27.39,56.84-1.77,124.64,56.4,149.11,60.97,25.31,130.44-8.7,148.37-72.14h0Z" style="fill: #121210;"/>
      <path d="M83.08,82.38C29.9,100.36.28,158.18,16.23,211.87c15.45,53.52,70.92,86.43,125.29,74.13,35.15-7.47,65.2-34.5,76.6-68.57-9.25,34.43-40.95,62.87-76.12,70.73-55.33,13.24-112.94-20.81-128.23-75.58C-2.49,158.64,29.02,97.57,83.08,82.38h0Z" style="fill: #121210;"/>
      <path d="M83.14,82.5C5.67,115.52.51,220.53,71.31,264.09c52.58,32.26,123,10.77,146.69-46.72,0,0,.53.21.53.21-6.02,15.76-16.34,29.84-29.37,40.63-21.16,17.72-49.9,25.88-77.26,22.41-42.16-4.95-77.61-35.53-88.93-76.39-.2-.92-.97-3.71-1.18-4.63-.24-1.1-.73-3.58-.97-4.68-.53-3.06-.98-6.36-1.29-9.47-2.45-26.4,5.72-53.75,22.77-74.09,10.79-13.03,24.87-23.35,40.63-29.37l.21.53h0Z" style="fill: #121210;"/>
      <path d="M83.2,82.59c-59.95,30.36-69.83,110.96-22.81,157.52,32.77,33.68,89.07,40,127.37,12.03,12.67-8.9,23.19-20.93,30.15-34.84l.7.34c-6.79,14.14-17.23,26.5-29.95,35.75-46.91,34.37-114.54,18.84-144.6-30.14-12.5-20.11-17.86-44.58-14.48-68.04,4.2-31.29,24.76-59.76,53.27-73.32,0,0,.34.7.34.7h0Z" style="fill: #121210;"/>
      <path d="M83.28,82.64c-45.06,28.11-56.19,88.23-27.74,132.23,27.72,43.66,87.28,59.61,131.91,32.27,12.25-7.43,22.83-17.7,30.42-29.91l.8.49c-11.28,18.66-29.43,33.13-50.17,39.96-50.59,16.78-106.37-11.45-124.39-61.28-7.57-20.54-8.19-43.59-1.28-64.4,6.83-20.74,21.3-38.88,39.96-50.17,0,0,.49.8.49.8h0Z" style="fill: #121210;"/>
      <path d="M83.35,82.65c-13.71,10.73-23.88,25.64-29.66,41.98-.44,1.39-1.65,5.65-2.1,7.13-.35,1.86-1.18,5.51-1.5,7.28-.25,2.43-.67,4.97-.91,7.38,0,0-.22,4.95-.22,4.95-.08,1.39-.11,3.53-.01,4.95.06,1.65.09,3.3.18,4.95,0,0,.55,4.92.55,4.92.23,2.76,1.19,6.99,1.69,9.76.43,1.67,1.55,5.58,1.96,7.17,11.33,35.35,41.79,61.68,78.51,67.41,1.82.28,5.55.59,7.38.84,2.4.14,5.01.15,7.43.26,1.9-.03,5.54-.26,7.43-.32,2.4-.24,4.97-.64,7.38-.91,1.91-.34,5.4-1.14,7.28-1.5,1.34-.42,5.78-1.68,7.13-2.1,0,0,2.31-.9,2.31-.9,15.47-5.76,29.45-15.76,39.67-28.76,0,0,.83.64.83.64-10.22,13.25-24.3,23.64-39.98,29.52,0,0-2.35.92-2.35.92-1.41.45-5.74,1.69-7.24,2.16-2.93.61-6.97,1.58-9.9,1.88-1.67.21-3.33.44-5,.63,0,0-5.03.25-5.03.25-1.41.09-3.59.12-5.04.03-2.87,0-7.15-.33-10.05-.71-1.41-.03-3.57-.51-4.98-.75-36.32-6.22-66.42-33-77.43-68.08-.47-1.63-1.5-5.64-1.97-7.3-.25-1.52-1.15-5.93-1.4-7.43-.28-1.85-.58-5.65-.83-7.51-.14-2.45-.14-5.1-.24-7.56.03-1.92.28-5.64.35-7.55.25-2.44.67-5.06.95-7.5.35-1.93,1.18-5.49,1.56-7.4.43-1.36,1.73-5.87,2.16-7.24.63-1.71,2.12-5.34,2.77-7.04,0,0,2.23-4.52,2.23-4.52,6.07-11.97,14.84-22.57,25.44-30.77l.64.83h0Z" style="fill: #121210;"/>
      <path d="M83.43,82.63c-24.05,24.88-31.8,60.45-20.95,93.19,15.63,47.94,67.18,77.24,116.17,63.73,14.64-4.09,28.33-11.87,39.24-22.48,0,0,.78.79.78.79-10.97,10.82-24.79,18.87-39.64,23.04-49.8,13.83-102.27-15.73-118.02-64.61-1.2-3.55-2.17-7.57-2.97-11.2-.39-1.69-.79-5.16-1.11-6.87-.53-4.44-.76-9.39-.73-13.88.12-4.51.62-9.37,1.32-13.84.39-2.23,1-4.58,1.44-6.81.45-1.82,1.48-4.9,1.96-6.67,4.6-13.1,11.92-25.32,21.72-35.19,0,0,.79.78.79.78h0Z" style="fill: #121210;"/>
      <path d="M83.49,82.56c-20.19,28.52-22.92,64.36-8.06,95.85,19.31,40.29,64.21,63.57,108.16,53.94,12.27-2.89,24.09-7.99,34.35-15.35,0,0,.65.91.65.91-10.38,7.47-22.32,12.67-34.74,15.62-32.48,7.22-66.61-3.42-90.1-26.8-18.67-18.76-29.42-44.58-29.04-71.08,0-1.73.26-4.69.31-6.38.18-2.07.53-4.27.75-6.35.27-1.75.9-4.58,1.19-6.28,0,0,1.09-4.12,1.09-4.12,2.98-10.96,7.93-21.37,14.53-30.62,0,0,.91.65.91.65h0Z" style="fill: #121210;"/>
      <path d="M83.52,82.47c-12.79,26.81-13.2,57.44-1.01,84.53,17.74,39.22,59.08,63.8,102.07,59.39,11.56-1.25,22.96-4.38,33.45-9.41,0,0,.47.98.47.98-10.6,5.09-22.12,8.28-33.81,9.55-41.3,4.31-81.58-18.01-100.68-54.73-.53-1.15-2.07-4.15-2.57-5.29-.54-1.23-1.73-4.18-2.26-5.43-.36-1.1-1.59-4.46-1.95-5.55-.41-1.32-1.22-4.33-1.62-5.66-.44-2.09-1.33-5.56-1.61-7.68,0,0-.63-3.87-.63-3.87-.2-2.15-.68-5.65-.71-7.81-.99-16.96,2.59-34.15,9.9-49.48,0,0,.98.47.98.47h0Z" style="fill: #121210;"/>
      <path d="M83.03,82.24c-9.84,36.83-.31,77.75,28.58,106.65,28.9,28.9,69.83,38.43,106.65,28.59" style="fill: none; stroke: #121210; stroke-miterlimit: 10;"/>
    </g>
    <g>
      <path d="M161.9,218.26c-83.36-21.54-110.86-124.77-50.55-185.78,43.36-43.43,114.73-43.38,157.72.54,13.56,13.86,23.45,31.27,28.06,50.01-8.4-30.09-30.14-56.02-58.27-69.54-56.84-27.39-124.64-1.77-149.11,56.4-25.31,60.97,8.7,130.44,72.14,148.37h0Z" style="fill: #121210;"/>
      <path d="M296.98,83.08C279.01,29.9,221.19.28,167.5,16.23c-53.52,15.45-86.43,70.92-74.13,125.29,7.47,35.15,34.5,65.2,68.57,76.6-34.43-9.25-62.87-40.95-70.73-76.12-13.24-55.33,20.81-112.94,75.58-128.23,53.93-16.27,115.01,15.25,130.19,69.3h0Z" style="fill: #121210;"/>
      <path d="M296.87,83.14C263.84,5.67,158.84.52,115.28,71.31c-32.26,52.58-10.77,123,46.72,146.69,0,0-.21.53-.21.53-15.76-6.02-29.84-16.34-40.63-29.37-17.72-21.16-25.88-49.9-22.41-77.26,4.95-42.16,35.53-77.61,76.39-88.93.92-.2,3.71-.97,4.63-1.18,1.1-.24,3.58-.73,4.68-.97,3.06-.53,6.36-.98,9.47-1.29,26.4-2.45,53.75,5.72,74.09,22.77,13.03,10.79,23.35,24.87,29.37,40.63,0,0-.53.21-.53.21h0Z" style="fill: #121210;"/>
      <path d="M296.78,83.2c-30.36-59.95-110.96-69.83-157.52-22.81-33.68,32.77-40,89.07-12.03,127.37,8.9,12.67,20.93,23.19,34.84,30.15l-.34.7c-14.14-6.79-26.5-17.23-35.75-29.95-34.37-46.91-18.84-114.54,30.14-144.6,20.11-12.5,44.58-17.86,68.04-14.48,31.29,4.2,59.76,24.76,73.32,53.27,0,0-.7.34-.7.34h0Z" style="fill: #121210;"/>
      <path d="M296.73,83.28c-28.11-45.06-88.23-56.19-132.23-27.74-43.66,27.72-59.61,87.28-32.27,131.91,7.43,12.25,17.7,22.83,29.91,30.42,0,0-.49.8-.49.8-18.66-11.28-33.13-29.43-39.96-50.17-16.78-50.59,11.45-106.37,61.28-124.39,20.54-7.57,43.59-8.19,64.4-1.28,20.74,6.83,38.88,21.3,50.17,39.96,0,0-.8.49-.8.49h0Z" style="fill: #121210;"/>
      <path d="M296.72,83.35c-10.73-13.71-25.64-23.88-41.98-29.66-1.39-.44-5.65-1.65-7.13-2.1-1.86-.35-5.51-1.18-7.28-1.5-2.43-.25-4.97-.67-7.38-.91,0,0-4.95-.22-4.95-.22-1.39-.08-3.53-.11-4.95-.01-1.65.06-3.3.09-4.95.18,0,0-4.92.55-4.92.55-2.76.23-6.99,1.19-9.76,1.69-1.67.43-5.58,1.55-7.17,1.96-35.35,11.33-61.68,41.79-67.41,78.51-.28,1.82-.59,5.55-.84,7.38-.14,2.4-.15,5.01-.26,7.43.03,1.9.26,5.54.32,7.43.24,2.4.64,4.97.91,7.38.34,1.91,1.14,5.4,1.5,7.28.42,1.34,1.68,5.78,2.1,7.13,0,0,.9,2.31.9,2.31,5.76,15.47,15.76,29.45,28.76,39.67,0,0-.64.83-.64.83-13.25-10.22-23.64-24.3-29.52-39.98,0,0-.92-2.35-.92-2.35-.45-1.41-1.69-5.74-2.16-7.24-.61-2.93-1.58-6.97-1.88-9.9-.21-1.67-.44-3.33-.63-5l-.25-5.03c-.09-1.41-.12-3.59-.03-5.04,0-2.87.33-7.15.71-10.05.03-1.41.51-3.57.75-4.98,6.22-36.32,33-66.42,68.08-77.43,1.63-.47,5.64-1.5,7.3-1.97,1.52-.25,5.93-1.15,7.43-1.4,1.85-.28,5.65-.58,7.51-.83,2.45-.14,5.1-.14,7.56-.24,1.92.03,5.64.28,7.55.35,2.44.25,5.06.67,7.5.95,1.93.35,5.49,1.18,7.4,1.56,1.36.43,5.87,1.73,7.24,2.16,1.71.63,5.34,2.12,7.04,2.77,0,0,4.52,2.23,4.52,2.23,11.97,6.07,22.57,14.84,30.77,25.44l-.83.64h0Z" style="fill: #121210;"/>
      <path d="M296.74,83.43c-24.88-24.05-60.45-31.8-93.19-20.95-47.94,15.63-77.24,67.18-63.73,116.17,4.09,14.64,11.87,28.33,22.48,39.24,0,0-.79.78-.79.78-10.82-10.97-18.87-24.79-23.04-39.64-13.83-49.8,15.73-102.27,64.61-118.02,3.55-1.2,7.57-2.17,11.2-2.97,1.69-.39,5.16-.79,6.87-1.11,4.44-.53,9.39-.76,13.88-.73,4.51.12,9.37.62,13.84,1.32,2.23.39,4.58,1,6.81,1.44,1.82.45,4.9,1.48,6.67,1.96,13.1,4.6,25.32,11.92,35.19,21.72,0,0-.78.79-.78.79h0Z" style="fill: #121210;"/>
      <path d="M296.8,83.49c-28.52-20.19-64.36-22.92-95.85-8.06-40.29,19.31-63.57,64.21-53.94,108.16,2.89,12.27,7.99,24.09,15.35,34.35,0,0-.91.65-.91.65-7.47-10.38-12.67-22.32-15.62-34.74-7.22-32.48,3.42-66.61,26.8-90.1,18.76-18.67,44.58-29.42,71.08-29.04,1.73,0,4.69.26,6.38.31,2.07.18,4.27.53,6.35.75,1.75.27,4.58.9,6.28,1.19,0,0,4.12,1.09,4.12,1.09,10.96,2.98,21.37,7.93,30.62,14.53l-.65.91h0Z" style="fill: #121210;"/>
      <path d="M296.9,83.52c-26.81-12.79-57.44-13.2-84.53-1.01-39.22,17.74-63.8,59.08-59.39,102.07,1.25,11.56,4.38,22.96,9.41,33.45,0,0-.98.47-.98.47-5.09-10.6-8.28-22.12-9.55-33.81-4.31-41.3,18.01-81.58,54.73-100.68,1.15-.53,4.15-2.07,5.29-2.57,1.23-.54,4.18-1.73,5.43-2.26,1.1-.36,4.46-1.59,5.55-1.95,1.32-.41,4.33-1.22,5.66-1.62,2.09-.44,5.56-1.33,7.68-1.61,0,0,3.87-.63,3.87-.63,2.15-.2,5.65-.68,7.81-.71,16.96-.99,34.15,2.59,49.48,9.9,0,0-.47.98-.47.98h0Z" style="fill: #121210;"/>
      <path d="M297.13,83.03c-36.83-9.84-77.75-.31-106.65,28.58s-38.43,69.83-28.59,106.65" style="fill: none; stroke: #121210; stroke-miterlimit: 10;"/>
    </g>
    <g>
      <path d="M161.32,163.09c21.54-83.36,124.77-110.86,185.78-50.55,43.43,43.36,43.38,114.73-.54,157.72-13.86,13.56-31.27,23.45-50.01,28.06,30.09-8.4,56.02-30.14,69.54-58.27,27.39-56.84,1.77-124.64-56.4-149.11-60.97-25.31-130.44,8.7-148.37,72.14h0Z" style="fill: #121210;"/>
      <path d="M296.51,298.17c53.18-17.97,82.79-75.8,66.85-129.48-15.45-53.52-70.92-86.43-125.29-74.13-35.15,7.47-65.2,34.5-76.6,68.57,9.25-34.43,40.95-62.87,76.12-70.73,55.33-13.24,112.94,20.81,128.23,75.58,16.27,53.93-15.25,115.01-69.3,130.19h0Z" style="fill: #121210;"/>
      <path d="M296.45,298.06c77.47-33.02,82.62-138.03,11.83-181.58-52.58-32.26-123-10.77-146.69,46.72,0,0-.53-.21-.53-.21,6.02-15.76,16.34-29.84,29.37-40.63,21.16-17.72,49.9-25.88,77.26-22.41,42.16,4.95,77.61,35.53,88.93,76.39.2.92.97,3.71,1.18,4.63.24,1.1.73,3.58.97,4.68.53,3.06.98,6.36,1.29,9.47,2.45,26.4-5.72,53.75-22.77,74.09-10.79,13.03-24.87,23.35-40.63,29.37,0,0-.21-.53-.21-.53h0Z" style="fill: #121210;"/>
      <path d="M296.39,297.97c59.95-30.36,69.83-110.96,22.81-157.52-32.77-33.68-89.07-40-127.37-12.03-12.67,8.9-23.19,20.93-30.15,34.84,0,0-.7-.34-.7-.34,6.79-14.14,17.23-26.5,29.95-35.75,46.91-34.37,114.54-18.84,144.6,30.14,12.5,20.11,17.86,44.58,14.48,68.04-4.2,31.29-24.76,59.76-53.27,73.32,0,0-.34-.7-.34-.7h0Z" style="fill: #121210;"/>
      <path d="M296.31,297.92c45.06-28.11,56.19-88.23,27.74-132.23-27.72-43.66-87.28-59.61-131.91-32.27-12.25,7.43-22.83,17.7-30.42,29.91,0,0-.8-.49-.8-.49,11.28-18.66,29.43-33.13,50.17-39.96,50.59-16.78,106.37,11.45,124.39,61.28,7.57,20.54,8.19,43.59,1.28,64.4-6.83,20.74-21.3,38.88-39.96,50.17,0,0-.49-.8-.49-.8h0Z" style="fill: #121210;"/>
      <path d="M296.24,297.91c13.71-10.73,23.88-25.64,29.66-41.98.44-1.39,1.65-5.65,2.1-7.13.35-1.86,1.18-5.51,1.5-7.28.25-2.43.67-4.97.91-7.38,0,0,.22-4.95.22-4.95.08-1.39.11-3.53.01-4.95-.06-1.65-.09-3.3-.18-4.95,0,0-.55-4.92-.55-4.92-.23-2.76-1.19-6.99-1.69-9.76-.43-1.67-1.55-5.58-1.96-7.17-11.33-35.35-41.79-61.68-78.51-67.41-1.82-.28-5.55-.59-7.38-.84-2.4-.14-5.01-.15-7.43-.26-1.9.03-5.54.26-7.43.32-2.4.24-4.97.64-7.38.91-1.91.34-5.4,1.14-7.28,1.5-1.34.42-5.78,1.68-7.13,2.1,0,0-2.31.9-2.31.9-15.47,5.76-29.45,15.76-39.67,28.76,0,0-.83-.64-.83-.64,10.22-13.25,24.3-23.64,39.98-29.52,0,0,2.35-.92,2.35-.92,1.41-.45,5.74-1.69,7.24-2.16,2.93-.61,6.97-1.58,9.9-1.88,1.67-.21,3.33-.44,5-.63l5.03-.25c1.41-.09,3.59-.12,5.04-.03,2.87,0,7.15.33,10.05.71,1.41.03,3.57.51,4.98.75,36.32,6.22,66.42,33,77.43,68.08.47,1.63,1.5,5.64,1.97,7.3.25,1.52,1.15,5.93,1.4,7.43.28,1.85.58,5.65.83,7.51.14,2.45.14,5.1.24,7.56-.03,1.92-.28,5.64-.35,7.55-.25,2.44-.67,5.06-.95,7.5-.35,1.93-1.18,5.49-1.56,7.4-.43,1.36-1.73,5.87-2.16,7.24-.63,1.71-2.12,5.34-2.77,7.04,0,0-2.23,4.52-2.23,4.52-6.07,11.97-14.84,22.57-25.44,30.77,0,0-.64-.83-.64-.83h0Z" style="fill: #121210;"/>
      <path d="M296.16,297.93c24.05-24.88,31.8-60.45,20.95-93.19-15.63-47.94-67.18-77.24-116.17-63.73-14.64,4.09-28.33,11.87-39.24,22.48,0,0-.78-.79-.78-.79,10.97-10.82,24.79-18.87,39.64-23.04,49.8-13.83,102.27,15.73,118.02,64.61,1.2,3.55,2.17,7.57,2.97,11.2.39,1.69.79,5.16,1.11,6.87.53,4.44.76,9.39.73,13.88-.12,4.51-.62,9.37-1.32,13.84-.39,2.23-1,4.58-1.44,6.81-.45,1.82-1.48,4.9-1.96,6.67-4.6,13.1-11.92,25.32-21.72,35.19,0,0-.79-.78-.79-.78h0Z" style="fill: #121210;"/>
      <path d="M296.1,297.99c20.19-28.52,22.92-64.36,8.06-95.85-19.31-40.29-64.21-63.57-108.16-53.94-12.27,2.89-24.09,7.99-34.35,15.35,0,0-.65-.91-.65-.91,10.38-7.47,22.32-12.67,34.74-15.62,32.48-7.22,66.61,3.42,90.1,26.8,18.67,18.76,29.42,44.58,29.04,71.08,0,1.73-.26,4.69-.31,6.38-.18,2.07-.53,4.27-.75,6.35-.27,1.75-.9,4.58-1.19,6.28,0,0-1.09,4.12-1.09,4.12-2.98,10.96-7.93,21.37-14.53,30.62l-.91-.65h0Z" style="fill: #121210;"/>
      <path d="M296.07,298.09c12.79-26.81,13.2-57.44,1.01-84.53-17.74-39.22-59.08-63.8-102.07-59.39-11.56,1.25-22.96,4.38-33.45,9.41,0,0-.47-.98-.47-.98,10.6-5.09,22.12-8.28,33.81-9.55,41.3-4.31,81.58,18.01,100.68,54.73.53,1.15,2.07,4.15,2.57,5.29.54,1.23,1.73,4.18,2.26,5.43.36,1.1,1.59,4.46,1.95,5.55.41,1.32,1.22,4.33,1.62,5.66.44,2.09,1.33,5.56,1.61,7.68,0,0,.63,3.87.63,3.87.2,2.15.68,5.65.71,7.81.99,16.96-2.59,34.15-9.9,49.48,0,0-.98-.47-.98-.47h0Z" style="fill: #121210;"/>
      <path d="M296.56,298.32c9.84-36.83.31-77.75-28.58-106.65-28.9-28.9-69.83-38.43-106.65-28.59" style="fill: none; stroke: #121210; stroke-miterlimit: 10;"/>
    </g>
    <g>
      <path d="M217.69,162.29c83.36,21.54,110.86,124.77,50.55,185.78-43.36,43.43-114.73,43.38-157.72-.54-13.56-13.86-23.45-31.27-28.06-50.01,8.4,30.09,30.14,56.02,58.27,69.54,56.84,27.39,124.64,1.77,149.11-56.4,25.31-60.97-8.7-130.44-72.14-148.37h0Z" style="fill: #121210;"/>
      <path d="M82.61,297.48c17.97,53.18,75.8,82.79,129.48,66.85,53.52-15.45,86.43-70.92,74.13-125.29-7.47-35.15-34.5-65.2-68.57-76.6,34.43,9.25,62.87,40.95,70.73,76.12,13.24,55.33-20.81,112.94-75.58,128.23-53.93,16.27-115.01-15.25-130.19-69.3h0Z" style="fill: #121210;"/>
      <path d="M82.72,297.42c33.02,77.47,138.03,82.62,181.58,11.83,32.26-52.58,10.77-123-46.72-146.69,0,0,.21-.53.21-.53,15.76,6.02,29.84,16.34,40.63,29.37,17.72,21.16,25.88,49.9,22.41,77.26-4.95,42.16-35.53,77.61-76.39,88.93-.92.2-3.71.97-4.63,1.18-1.1.24-3.58.73-4.68.97-3.06.53-6.36.98-9.47,1.29-26.4,2.45-53.75-5.72-74.09-22.77-13.03-10.79-23.35-24.87-29.37-40.63l.53-.21h0Z" style="fill: #121210;"/>
      <path d="M82.81,297.36c30.36,59.95,110.96,69.83,157.52,22.81,33.68-32.77,40-89.07,12.03-127.37-8.9-12.67-20.93-23.19-34.84-30.15,0,0,.34-.7.34-.7,14.14,6.79,26.5,17.23,35.75,29.95,34.37,46.91,18.84,114.54-30.14,144.6-20.11,12.5-44.58,17.86-68.04,14.48-31.29-4.2-59.76-24.76-73.32-53.27,0,0,.7-.34.7-.34h0Z" style="fill: #121210;"/>
      <path d="M82.86,297.28c28.11,45.06,88.23,56.19,132.23,27.74,43.66-27.72,59.61-87.28,32.27-131.91-7.43-12.25-17.7-22.83-29.91-30.42,0,0,.49-.8.49-.8,18.66,11.28,33.13,29.43,39.96,50.17,16.78,50.59-11.45,106.37-61.28,124.39-20.54,7.57-43.59,8.19-64.4,1.28-20.74-6.83-38.88-21.3-50.17-39.96,0,0,.8-.49.8-.49h0Z" style="fill: #121210;"/>
      <path d="M82.87,297.21c10.73,13.71,25.64,23.88,41.98,29.66,1.39.44,5.65,1.65,7.13,2.1,1.86.35,5.51,1.18,7.28,1.5,2.43.25,4.97.67,7.38.91,0,0,4.95.22,4.95.22,1.39.08,3.53.11,4.95.01,1.65-.06,3.3-.09,4.95-.18l4.92-.55c2.76-.23,6.99-1.19,9.76-1.69,1.67-.43,5.58-1.55,7.17-1.96,35.35-11.33,61.68-41.79,67.41-78.51.28-1.82.59-5.55.84-7.38.14-2.4.15-5.01.26-7.43-.03-1.9-.26-5.54-.32-7.43-.24-2.4-.64-4.97-.91-7.38-.34-1.91-1.14-5.4-1.5-7.28-.42-1.33-1.68-5.78-2.1-7.13,0,0-.9-2.31-.9-2.31-5.76-15.47-15.76-29.45-28.76-39.67,0,0,.64-.83.64-.83,13.25,10.22,23.64,24.3,29.52,39.98,0,0,.92,2.35.92,2.35.45,1.41,1.69,5.74,2.16,7.24.61,2.93,1.58,6.97,1.88,9.9.21,1.67.44,3.33.63,5l.25,5.03c.09,1.41.12,3.59.03,5.04,0,2.87-.33,7.15-.71,10.05-.03,1.41-.51,3.57-.75,4.98-6.22,36.32-33,66.42-68.08,77.43-1.63.47-5.64,1.5-7.3,1.97-1.52.25-5.93,1.15-7.43,1.4-1.85.28-5.65.58-7.51.83-2.45.14-5.1.14-7.56.24-1.92-.03-5.64-.28-7.55-.35-2.44-.25-5.06-.67-7.5-.95-1.93-.35-5.49-1.18-7.4-1.56-1.36-.43-5.87-1.73-7.24-2.16-1.71-.63-5.34-2.12-7.04-2.77,0,0-4.52-2.23-4.52-2.23-11.97-6.07-22.57-14.84-30.77-25.44l.83-.64h0Z" style="fill: #121210;"/>
      <path d="M82.85,297.13c24.88,24.05,60.45,31.8,93.19,20.95,47.94-15.63,77.24-67.18,63.73-116.17-4.09-14.64-11.87-28.33-22.48-39.24,0,0,.79-.78.79-.78,10.82,10.97,18.87,24.79,23.04,39.64,13.83,49.8-15.73,102.27-64.61,118.02-3.55,1.2-7.57,2.17-11.2,2.97-1.69.39-5.16.79-6.87,1.11-4.44.53-9.39.76-13.88.73-4.51-.12-9.37-.62-13.84-1.32-2.23-.39-4.58-1-6.81-1.44-1.82-.45-4.9-1.48-6.67-1.96-13.1-4.6-25.32-11.92-35.19-21.72,0,0,.78-.79.78-.79h0Z" style="fill: #121210;"/>
      <path d="M82.79,297.07c28.52,20.19,64.36,22.92,95.85,8.06,40.29-19.31,63.57-64.21,53.94-108.16-2.89-12.27-7.99-24.09-15.35-34.35,0,0,.91-.65.91-.65,7.47,10.38,12.67,22.32,15.62,34.74,7.22,32.48-3.42,66.61-26.8,90.1-18.76,18.67-44.58,29.42-71.08,29.04-1.73,0-4.69-.26-6.38-.31-2.07-.18-4.27-.53-6.35-.75-1.75-.27-4.58-.9-6.28-1.19,0,0-4.12-1.09-4.12-1.09-10.96-2.98-21.37-7.93-30.62-14.53,0,0,.65-.91.65-.91h0Z" style="fill: #121210;"/>
      <path d="M82.69,297.04c26.81,12.79,57.44,13.2,84.53,1.01,39.22-17.74,63.8-59.08,59.39-102.07-1.25-11.56-4.38-22.96-9.41-33.45,0,0,.98-.47.98-.47,5.09,10.6,8.28,22.12,9.55,33.81,4.31,41.3-18.01,81.58-54.73,100.68-1.15.53-4.15,2.07-5.29,2.57-1.23.54-4.18,1.73-5.43,2.26-1.1.36-4.46,1.59-5.55,1.95-1.32.41-4.33,1.22-5.66,1.62-2.09.44-5.56,1.33-7.68,1.61,0,0-3.87.63-3.87.63-2.15.2-5.65.68-7.81.71-16.96.99-34.15-2.59-49.48-9.9,0,0,.47-.98.47-.98h0Z" style="fill: #121210;"/>
      <path d="M82.46,297.53c36.83,9.84,77.75.31,106.65-28.58s38.43-69.83,28.59-106.65" style="fill: none; stroke: #121210; stroke-miterlimit: 10;"/>
    </g>
  </g>
</svg>